{"accessors": [{"bufferView": 2, "componentType": 5126, "count": 2112, "max": [1.0765600204467773, 0.01936900056898594, 0.7268949747085571], "min": [-1.0782239437103271, -0.04293200001120567, 0.6338310241699219], "type": "VEC3"}, {"bufferView": 2, "byteOffset": 25344, "componentType": 5126, "count": 2112, "max": [0.9859815239906311, 0.99140864610672, 1.0], "min": [-0.9859815239906311, -0.99140864610672, 0.13079360127449036], "type": "VEC3"}, {"bufferView": 3, "componentType": 5126, "count": 2112, "max": [0.9892807006835938, 0.9954286217689514, 0.38692566752433777, 1.0], "min": [-0.9892832040786743, -0.9894596934318542, -0.24332837760448456, 1.0], "type": "VEC4"}, {"bufferView": 1, "componentType": 5126, "count": 2112, "max": [0.9553859829902649, 0.9646829962730408], "min": [0.5338749885559082, 0.12234599888324738], "type": "VEC2"}, {"bufferView": 0, "componentType": 5125, "count": 9720, "type": "SCALAR"}, {"bufferView": 2, "byteOffset": 50688, "componentType": 5126, "count": 9290, "max": [1.1172510385513306, 0.06036299839615822, 0.6344329714775085], "min": [-1.1189709901809692, -0.08382400125265121, -0.998274028301239], "type": "VEC3"}, {"bufferView": 2, "byteOffset": 162168, "componentType": 5126, "count": 9290, "max": [0.9945246577262878, 1.0, 1.0], "min": [-0.9945246577262878, -1.0, -1.0], "type": "VEC3"}, {"bufferView": 1, "byteOffset": 16896, "componentType": 5126, "count": 9290, "max": [0.9982079863548279, 1.0], "min": [0.0, 0.0], "type": "VEC2"}, {"bufferView": 0, "byteOffset": 38880, "componentType": 5125, "count": 38640, "type": "SCALAR"}, {"bufferView": 2, "byteOffset": 273648, "componentType": 5126, "count": 1858, "max": [0.7320690155029297, 0.06036299839615822, 0.6344329714775085], "min": [-0.1688539981842041, -0.08382400125265121, -0.998274028301239], "type": "VEC3"}, {"bufferView": 2, "byteOffset": 295944, "componentType": 5126, "count": 1858, "max": [0.9945246577262878, 1.0, 1.0], "min": [-0.9945246577262878, -1.0, -1.0], "type": "VEC3"}, {"bufferView": 1, "byteOffset": 91216, "componentType": 5126, "count": 1858, "max": [0.9564459919929504, 1.0], "min": [0.0, 0.0], "type": "VEC2"}, {"bufferView": 0, "byteOffset": 193440, "componentType": 5125, "count": 7728, "type": "SCALAR"}], "asset": {"extras": {"author": "sandeia (https://sketchfab.com/sandeia)", "license": "CC-BY-4.0 (http://creativecommons.org/licenses/by/4.0/)", "source": "https://sketchfab.com/3d-models/uncapped-permanent-marker-pens-38388a4c53664f0c891d17dac18bf288", "title": "Uncapped Permanent Marker Pens"}, "generator": "Sketchfab-15.31.0", "version": "2.0"}, "bufferViews": [{"buffer": 0, "byteLength": 224352, "name": "floatBufferViews", "target": 34963}, {"buffer": 0, "byteLength": 106080, "byteOffset": 224352, "byteStride": 8, "name": "floatBufferViews", "target": 34962}, {"buffer": 0, "byteLength": 318240, "byteOffset": 330432, "byteStride": 12, "name": "floatBufferViews", "target": 34962}, {"buffer": 0, "byteLength": 33792, "byteOffset": 648672, "byteStride": 16, "name": "floatBufferViews", "target": 34962}], "buffers": [{"byteLength": 682464, "uri": "scene.bin"}], "materials": [{"doubleSided": true, "name": "SHARPIE_NIB_MTL", "pbrMetallicRoughness": {"roughnessFactor": 0.6}}, {"doubleSided": true, "name": "SHARPIE_PEN_MTL", "pbrMetallicRoughness": {"roughnessFactor": 0.6}}], "meshes": [{"name": "Object_0", "primitives": [{"attributes": {"NORMAL": 1, "POSITION": 0, "TANGENT": 2, "TEXCOORD_0": 3}, "indices": 4, "material": 0, "mode": 4}]}, {"name": "Object_1", "primitives": [{"attributes": {"NORMAL": 6, "POSITION": 5, "TEXCOORD_0": 7}, "indices": 8, "material": 1, "mode": 4}]}, {"name": "Object_2", "primitives": [{"attributes": {"NORMAL": 10, "POSITION": 9, "TEXCOORD_0": 11}, "indices": 12, "material": 1, "mode": 4}]}], "nodes": [{"children": [1], "matrix": [1.0, 0.0, 0.0, 0.0, 0.0, 2.220446049250313e-16, -1.0, 0.0, 0.0, 1.0, 2.220446049250313e-16, 0.0, 0.0, 0.0, 0.0, 1.0], "name": "Sketchfab_model"}, {"children": [2, 3, 4], "name": "SHARPIE_CAPLESS.obj.cleaner.materialmerger.gles"}, {"mesh": 0, "name": "Object_2"}, {"mesh": 1, "name": "Object_3"}, {"mesh": 2, "name": "Object_4"}], "scene": 0, "scenes": [{"name": "Sketchfab_Scene", "nodes": [0]}]}