{"accessors": [{"bufferView": 2, "componentType": 5126, "count": 9806, "max": [0.21348531544208527, 0.21429774165153503, 0.0871635228395462], "min": [-0.2134854644536972, -0.15489527583122253, -7.450580596923828e-09], "type": "VEC3"}, {"bufferView": 2, "byteOffset": 117672, "componentType": 5126, "count": 9806, "max": [1.0, 1.0, 1.0], "min": [-1.0, -1.0, -1.0], "type": "VEC3"}, {"bufferView": 3, "componentType": 5126, "count": 9806, "max": [1.0, 1.0, 1.0, 1.0], "min": [-1.0, -1.0, -1.0, -1.0], "type": "VEC4"}, {"bufferView": 1, "componentType": 5126, "count": 9806, "max": [0.9975036382675171, 0.9964161515235901], "min": [0.0023501578252762556, 0.002350448863580823], "type": "VEC2"}, {"bufferView": 0, "componentType": 5125, "count": 32316, "type": "SCALAR"}, {"bufferView": 2, "byteOffset": 235344, "componentType": 5126, "count": 1269, "max": [0.15174999833106995, 0.15174999833106995, 0.015901215374469757], "min": [-0.15174999833106995, -0.15174999833106995, -0.010342150926589966], "type": "VEC3"}, {"bufferView": 2, "byteOffset": 250572, "componentType": 5126, "count": 1269, "max": [1.0, 1.0, 1.0], "min": [-1.0, -1.0, -1.9172503584741207e-07], "type": "VEC3"}, {"bufferView": 3, "byteOffset": 156896, "componentType": 5126, "count": 1269, "max": [1.0, 1.0, 1.0, 1.0], "min": [-1.0, -1.0, -1.0, 1.0], "type": "VEC4"}, {"bufferView": 1, "byteOffset": 78448, "componentType": 5126, "count": 1269, "max": [0.9637957811355591, 0.9973071813583374], "min": [0.002351912669837475, 0.0023505582939833403], "type": "VEC2"}, {"bufferView": 0, "byteOffset": 129264, "componentType": 5125, "count": 3840, "type": "SCALAR"}, {"bufferView": 2, "byteOffset": 265800, "componentType": 5126, "count": 76, "max": [0.019313890486955643, 0.004158430267125368, 0.0017029143637046218], "min": [-0.019313890486955643, -0.0025755008682608604, -0.006611183751374483], "type": "VEC3"}, {"bufferView": 2, "byteOffset": 266712, "componentType": 5126, "count": 76, "max": [1.0, 0.9607833027839661, 0.9607831835746765], "min": [-1.0, -0.9607832431793213, -0.2773008644580841], "type": "VEC3"}, {"bufferView": 3, "byteOffset": 177200, "componentType": 5126, "count": 76, "max": [2.667850367288338e-06, 0.2773008644580841, 0.9607832431793213, 1.0], "min": [-1.0, -0.9607831239700317, -0.9607832431793213, 1.0], "type": "VEC4"}, {"bufferView": 1, "byteOffset": 88600, "componentType": 5126, "count": 76, "max": [0.9939464926719666, 0.9094613194465637], "min": [0.26228317618370056, 0.5247310400009155], "type": "VEC2"}, {"bufferView": 0, "byteOffset": 144624, "componentType": 5125, "count": 114, "type": "SCALAR"}, {"bufferView": 2, "byteOffset": 267624, "componentType": 5126, "count": 76, "max": [0.030669262632727623, 0.004158430267125368, 0.0017029143637046218], "min": [-0.030669253319501877, -0.0025755008682608604, -0.006611183751374483], "type": "VEC3"}, {"bufferView": 2, "byteOffset": 268536, "componentType": 5126, "count": 76, "max": [1.0, 0.9607833027839661, 0.9607831835746765], "min": [-1.0, -0.9607831835746765, -0.2773008644580841], "type": "VEC3"}, {"bufferView": 3, "byteOffset": 178416, "componentType": 5126, "count": 76, "max": [1.907094855368996e-07, 1.0529125802349881e-06, 1.2984750696887204e-07, 1.0], "min": [-1.0, -0.9607832431793213, -0.27730104327201843, 1.0], "type": "VEC4"}, {"bufferView": 1, "byteOffset": 89208, "componentType": 5126, "count": 76, "max": [0.995108425617218, 0.8438237905502319], "min": [0.21833586692810059, 0.030589276924729347], "type": "VEC2"}, {"bufferView": 0, "byteOffset": 145080, "componentType": 5125, "count": 114, "type": "SCALAR"}, {"bufferView": 2, "byteOffset": 269448, "componentType": 5126, "count": 60, "max": [0.02611391432583332, 0.0043593947775661945, 0.004036912694573402], "min": [-0.02611391432583332, -0.0043593947775661945, -0.005791953764855862], "type": "VEC3"}, {"bufferView": 2, "byteOffset": 270168, "componentType": 5126, "count": 60, "max": [0.9998714923858643, 0.9999967813491821, 0.999868631362915], "min": [-0.9998714327812195, -0.9999968409538269, -1.0562555985416111e-07], "type": "VEC3"}, {"bufferView": 3, "byteOffset": 179632, "componentType": 5126, "count": 60, "max": [0.6274444460868835, 0.7250857949256897, 1.0, 1.0], "min": [-0.9999968409538269, -0.9982028603553772, -1.0, 1.0], "type": "VEC4"}, {"bufferView": 1, "byteOffset": 89816, "componentType": 5126, "count": 60, "max": [0.9024773836135864, 0.9212207794189453], "min": [0.548190712928772, 0.06353944540023804], "type": "VEC2"}, {"bufferView": 0, "byteOffset": 145536, "componentType": 5125, "count": 198, "type": "SCALAR"}, {"bufferView": 2, "byteOffset": 270888, "componentType": 5126, "count": 1373, "max": [0.2070477157831192, 0.009827837347984314, 0.06195930391550064], "min": [-0.2070477157831192, -0.3355318307876587, -0.005845688283443451], "type": "VEC3"}, {"bufferView": 2, "byteOffset": 287364, "componentType": 5126, "count": 1373, "max": [1.0, 1.0, 1.0], "min": [-1.0, -1.0, -1.0], "type": "VEC3"}, {"bufferView": 3, "byteOffset": 180592, "componentType": 5126, "count": 1373, "max": [1.0, 1.0, 1.0, 1.0], "min": [-1.0, -1.0, -1.0, 1.0], "type": "VEC4"}, {"bufferView": 1, "byteOffset": 90296, "componentType": 5126, "count": 1373, "max": [0.9976354241371155, 0.9904398322105408], "min": [0.002348724752664566, 0.002250904217362404], "type": "VEC2"}, {"bufferView": 0, "byteOffset": 146328, "componentType": 5125, "count": 4260, "type": "SCALAR"}, {"bufferView": 2, "byteOffset": 303840, "componentType": 5126, "count": 339, "max": [0.013822020031511784, 0.0070000095292925835, 0.00842877384275198], "min": [-0.013822081498801708, -0.006999998353421688, -0.013854039832949638], "type": "VEC3"}, {"bufferView": 2, "byteOffset": 307908, "componentType": 5126, "count": 339, "max": [1.0, 1.0, 1.0], "min": [-1.0, -1.0, -0.7002153396606445], "type": "VEC3"}, {"bufferView": 3, "byteOffset": 202560, "componentType": 5126, "count": 339, "max": [0.9999948740005493, 1.0, 1.0, 1.0], "min": [-0.7582026124000549, -1.0, -1.0, 1.0], "type": "VEC4"}, {"bufferView": 1, "byteOffset": 101280, "componentType": 5126, "count": 339, "max": [0.9925492405891418, 0.9890349507331848], "min": [0.23070961236953735, 0.05895192548632622], "type": "VEC2"}, {"bufferView": 0, "byteOffset": 163368, "componentType": 5125, "count": 936, "type": "SCALAR"}, {"bufferView": 2, "byteOffset": 311976, "componentType": 5126, "count": 9775, "max": [0.03404612839221954, 0.05680614337325096, 0.016294635832309723], "min": [-0.020412873476743698, -0.23183126747608185, -0.013698635622859001], "type": "VEC3"}, {"bufferView": 2, "byteOffset": 429276, "componentType": 5126, "count": 9775, "max": [1.0, 1.0, 1.0], "min": [-1.0, -1.0, -1.0], "type": "VEC3"}, {"bufferView": 3, "byteOffset": 207984, "componentType": 5126, "count": 9775, "max": [1.0, 1.0, 1.0, 1.0], "min": [-1.0, -1.0, -1.0, -1.0], "type": "VEC4"}, {"bufferView": 1, "byteOffset": 103992, "componentType": 5126, "count": 9775, "max": [0.9976096749305725, 0.9970635175704956], "min": [0.019484683871269226, 0.002356847980991006], "type": "VEC2"}, {"bufferView": 0, "byteOffset": 167112, "componentType": 5125, "count": 34326, "type": "SCALAR"}, {"bufferView": 2, "byteOffset": 546576, "componentType": 5126, "count": 361, "max": [0.01283000037074089, 0.008170983754098415, 0.012830001302063465], "min": [-0.01283000037074089, -0.0007194795180112123, -0.01283000037074089], "type": "VEC3"}, {"bufferView": 2, "byteOffset": 550908, "componentType": 5126, "count": 361, "max": [1.0, 1.0, 1.0], "min": [-1.0, -1.0, -1.0], "type": "VEC3"}, {"bufferView": 3, "byteOffset": 364384, "componentType": 5126, "count": 361, "max": [0.8286669254302979, 1.0, 0.9995774030685425, 1.0], "min": [-0.9999970197677612, -1.0, -0.999651312828064, 1.0], "type": "VEC4"}, {"bufferView": 1, "byteOffset": 182192, "componentType": 5126, "count": 361, "max": [0.9322983026504517, 0.9519789814949036], "min": [0.0023557841777801514, 0.14353302121162415], "type": "VEC2"}, {"bufferView": 0, "byteOffset": 304416, "componentType": 5125, "count": 1056, "type": "SCALAR"}, {"bufferView": 2, "byteOffset": 555240, "componentType": 5126, "count": 113, "max": [0.0026050000451505184, 0.001600000075995922, 0.002250000135973096], "min": [-0.0026050000451505184, -0.001600000075995922, -0.0050496249459683895], "type": "VEC3"}, {"bufferView": 2, "byteOffset": 556596, "componentType": 5126, "count": 113, "max": [1.0, 1.0, 1.0], "min": [-1.0, -1.0, -1.0], "type": "VEC3"}, {"bufferView": 3, "byteOffset": 370160, "componentType": 5126, "count": 113, "max": [0.0, 1.0, 1.0, 1.0], "min": [0.0, -1.0, -1.0, 1.0], "type": "VEC4"}, {"bufferView": 1, "byteOffset": 185080, "componentType": 5126, "count": 113, "max": [0.968298077583313, 0.3248889148235321], "min": [0.39905625581741333, 0.030590791255235672], "type": "VEC2"}, {"bufferView": 0, "byteOffset": 308640, "componentType": 5125, "count": 255, "type": "SCALAR"}], "asset": {"extras": {"author": "AleixoAlonso (https://sketchfab.com/AleixoAlonso)", "license": "CC-BY-4.0 (http://creativecommons.org/licenses/by/4.0/)", "source": "https://sketchfab.com/3d-models/yamaha-tt-300-record-player-3577a2a1a0c24218bd5d768beccf218e", "title": "Yamaha TT-300 Record Player"}, "generator": "Sketchfab-12.66.0", "version": "2.0"}, "bufferViews": [{"buffer": 0, "byteLength": 309660, "name": "floatBufferViews", "target": 34963}, {"buffer": 0, "byteLength": 185984, "byteOffset": 309660, "byteStride": 8, "name": "floatBufferViews", "target": 34962}, {"buffer": 0, "byteLength": 557952, "byteOffset": 495644, "byteStride": 12, "name": "floatBufferViews", "target": 34962}, {"buffer": 0, "byteLength": 371968, "byteOffset": 1053596, "byteStride": 16, "name": "floatBufferViews", "target": 34962}], "buffers": [{"byteLength": 1425564, "uri": "turntable.bin"}], "images": [{"uri": "base.jpg?v=2", "mimeType": "image/jpeg"}, {"uri": "mr.jpg?v=2", "mimeType": "image/jpeg"}, {"uri": "normal.jpg?v=2", "mimeType": "image/jpeg"}], "materials": [{"alphaMode": "OPAQUE", "doubleSided": true, "name": "RPL0002_Textures", "normalTexture": {"index": 2}, "occlusionTexture": {"index": 1}, "pbrMetallicRoughness": {"baseColorFactor": [0.8648245820318268, 0.8648245820318268, 0.8648245820318268, 1.0], "baseColorTexture": {"index": 0}, "metallicRoughnessTexture": {"index": 1}}}], "meshes": [{"name": "#RPL0002_Yamaha_TT-300_#RPL0002_Textures_0", "primitives": [{"attributes": {"NORMAL": 1, "POSITION": 0, "TANGENT": 2, "TEXCOORD_0": 3}, "indices": 4, "material": 0, "mode": 4}]}, {"name": "#RPL0002_Platter_#RPL0002_Textures_0", "primitives": [{"attributes": {"NORMAL": 6, "POSITION": 5, "TANGENT": 7, "TEXCOORD_0": 8}, "indices": 9, "material": 0, "mode": 4}]}, {"name": "#RPL0002_Speed_#RPL0002_Textures_0", "primitives": [{"attributes": {"NORMAL": 11, "POSITION": 10, "TANGENT": 12, "TEXCOORD_0": 13}, "indices": 14, "material": 0, "mode": 4}]}, {"name": "#RPL0002_Cue_#RPL0002_Textures_0", "primitives": [{"attributes": {"NORMAL": 16, "POSITION": 15, "TANGENT": 17, "TEXCOORD_0": 18}, "indices": 19, "material": 0, "mode": 4}]}, {"name": "#RPL0002_Cut_#RPL0002_Textures_0", "primitives": [{"attributes": {"NORMAL": 21, "POSITION": 20, "TANGENT": 22, "TEXCOORD_0": 23}, "indices": 24, "material": 0, "mode": 4}]}, {"name": "#RPL0002_Cover_#RPL0002_Textures_0", "primitives": [{"attributes": {"NORMAL": 26, "POSITION": 25, "TANGENT": 27, "TEXCOORD_0": 28}, "indices": 29, "material": 0, "mode": 4}]}, {"name": "#RPL0002_Tone_Arm_Pivot_#RPL0002_Textures_0", "primitives": [{"attributes": {"NORMAL": 31, "POSITION": 30, "TANGENT": 32, "TEXCOORD_0": 33}, "indices": 34, "material": 0, "mode": 4}]}, {"name": "#RPL0002_Tone_Arm_#RPL0002_Textures_0", "primitives": [{"attributes": {"NORMAL": 36, "POSITION": 35, "TANGENT": 37, "TEXCOORD_0": 38}, "indices": 39, "material": 0, "mode": 4}]}, {"name": "#RPL0002_Weight_#RPL0002_Textures_0", "primitives": [{"attributes": {"NORMAL": 41, "POSITION": 40, "TANGENT": 42, "TEXCOORD_0": 43}, "indices": 44, "material": 0, "mode": 4}]}, {"name": "#RPL0002_Anti_Skate_#RPL0002_Textures_0", "primitives": [{"attributes": {"NORMAL": 46, "POSITION": 45, "TANGENT": 47, "TEXCOORD_0": 48}, "indices": 49, "material": 0, "mode": 4}]}], "nodes": [{"children": [1], "matrix": [1.0, 0.0, 0.0, 0.0, 0.0, 2.220446049250313e-16, -1.0, 0.0, 0.0, 1.0, 2.220446049250313e-16, 0.0, 0.0, 0.0, 0.0, 1.0], "name": "Sketchfab_model"}, {"children": [2], "matrix": [1.0, 0.0, 0.0, 0.0, 0.0, 0.0, 1.0, 0.0, 0.0, -1.0, 0.0, 0.0, 0.0, 0.0, 0.0, 1.0], "name": "#RPL0002_Yamaha_TT-300.fbx"}, {"children": [3], "name": "RootNode"}, {"children": [4, 5, 7, 9, 11, 13, 15, 21], "matrix": [100.0, 0.0, 0.0, 0.0, 0.0, -1.629206793918314e-05, -99.99999999999868, 0.0, 0.0, 99.99999999999868, -1.629206793918314e-05, 0.0, 0.0, 0.0, 0.0, 1.0], "name": "#RPL0002_Yamaha_TT-300"}, {"mesh": 0, "name": "#RPL0002_Yamaha_TT-300_#RPL0002_Textures_0"}, {"children": [6], "matrix": [1.0, 0.0, 0.0, 0.0, 0.0, 1.0, -2.646977960169688e-23, 0.0, 0.0, 2.646977960169688e-23, 1.0, 0.0, -0.04825751110911369, 0.0344480499625206, 0.05072195827960968, 1.0], "name": "#RPL0002_Platter"}, {"mesh": 1, "name": "#RPL0002_Platter_#RPL0002_Textures_0"}, {"children": [8], "matrix": [1.0, 0.0, 0.0, 0.0, 0.0, 1.0, -2.646977960169688e-23, 0.0, 0.0, 2.646977960169688e-23, 1.0, 0.0, -0.17481307685375214, -0.1451551914215088, 0.043539103120565414, 1.0], "name": "#RPL0002_Speed"}, {"mesh": 2, "name": "#RPL0002_Speed_#RPL0002_Textures_0"}, {"children": [10], "matrix": [1.0, 0.0, 0.0, 0.0, 0.0, 1.0, -2.646977960169688e-23, 0.0, 0.0, 2.646977960169688e-23, 1.0, 0.0, 0.08701000362634659, -0.14592218399047852, 0.043511755764484406, 1.0], "name": "#RPL0002_Cue"}, {"mesh": 3, "name": "#RPL0002_Cue_#RPL0002_Textures_0"}, {"children": [12], "matrix": [1.0, 0.0, 0.0, 0.0, 0.0, 1.0, -2.646977960169688e-23, 0.0, 0.0, 2.646977960169688e-23, 1.0, 0.0, 0.1585925668478012, -0.14361026883125305, 0.04176296293735504, 1.0], "name": "#RPL0002_Cut"}, {"mesh": 4, "name": "#RPL0002_Cut_#RPL0002_Textures_0"}, {"children": [14], "matrix": [1.0, 0.0, 0.0, 0.0, 0.0, 0.2249509211098668, -0.9743700955447179, 0.0, 0.0, 0.9743700955447179, 0.2249509211098668, 0.0, -7.217749953269958e-08, 0.20514771342277527, 0.04118766263127327, 1.0], "name": "#RPL0002_Cover"}, {"mesh": 5, "name": "#RPL0002_Cover_#RPL0002_Textures_0"}, {"children": [16, 17], "matrix": [1.0, 0.0, 0.0, 0.0, 0.0, 1.0, -2.646977960169688e-23, 0.0, 0.0, 2.646977960169688e-23, 1.0, 0.0, 0.14013515412807465, 0.1263609081506729, 0.0715835690498352, 1.0], "name": "#RPL0002_Tone_Arm_Pivot"}, {"mesh": 6, "name": "#RPL0002_Tone_Arm_Pivot_#RPL0002_Textures_0"}, {"children": [18, 19], "matrix": [1.0, 0.0, 0.0, 0.0, 0.0, 1.0, -2.646977960169688e-23, 0.0, 0.0, 2.646977960169688e-23, 1.0, 0.0, 0.0, 0.0, 0.0, 1.0], "name": "#RPL0002_Tone_Arm"}, {"mesh": 7, "name": "#RPL0002_Tone_Arm_#RPL0002_Textures_0"}, {"children": [20], "matrix": [1.0, 0.0, 0.0, 0.0, 0.0, 1.0, -2.646977960169688e-23, 0.0, 0.0, 2.646977960169688e-23, 1.0, 0.0, 2.6032328605651855e-05, 0.02216152846813202, 0.003464631736278534, 1.0], "name": "#RPL0002_Weight"}, {"mesh": 8, "name": "#RPL0002_Weight_#RPL0002_Textures_0"}, {"children": [22], "matrix": [1.0, 0.0, 0.0, 0.0, 0.0, 1.0, -2.646977960169688e-23, 0.0, 0.0, 2.646977960169688e-23, 1.0, 0.0, 0.1861690878868103, 0.11612699925899506, 0.05984583497047424, 1.0], "name": "#RPL0002_Anti_Skate"}, {"mesh": 9, "name": "#RPL0002_Anti_Skate_#RPL0002_Textures_0"}], "samplers": [{"magFilter": 9729, "minFilter": 9987, "wrapS": 10497, "wrapT": 10497}], "scene": 0, "scenes": [{"name": "Sketchfab_Scene", "nodes": [0]}], "textures": [{"sampler": 0, "source": 0}, {"sampler": 0, "source": 1}, {"sampler": 0, "source": 2}]}